<svg width="512" height="512" version="1.1" xmlns="http://www.w3.org/2000/svg" desc="Created with imagetracer.js version 1.2.6" ><path fill="rgb(122,72,40)" stroke="rgb(122,72,40)" stroke-width="1" opacity="0.807843137254902" d="M 378.5 61 L 385.5 69 L 378.5 61 Z " /><path fill="rgb(122,72,40)" stroke="rgb(122,72,40)" stroke-width="1" opacity="0.807843137254902" d="M 387.5 71 L 391.5 76 L 387.5 71 Z " /><path fill="rgb(122,72,40)" stroke="rgb(122,72,40)" stroke-width="1" opacity="0.807843137254902" d="M 392.5 77 L 394.5 80 L 392.5 77 Z " /><path fill="rgb(122,72,40)" stroke="rgb(122,72,40)" stroke-width="1" opacity="0.807843137254902" d="M 396.5 83 L 397.5 85 L 396.5 83 Z " /><path fill="rgb(122,72,40)" stroke="rgb(122,72,40)" stroke-width="1" opacity="0.807843137254902" d="M 148.5 92 L 151 95.5 L 149 94.5 L 148.5 92 Z " /><path fill="rgb(122,72,40)" stroke="rgb(122,72,40)" stroke-width="1" opacity="0.807843137254902" d="M 344.5 94 Q 346.8 93.3 346 95.5 L 347.5 95 L 349 95.5 L 347 96.5 L 363.5 114 L 344.5 94 Z " /><path fill="rgb(122,72,40)" stroke="rgb(122,72,40)" stroke-width="1" opacity="0.807843137254902" d="M 359.5 98 L 362 98.5 L 359.5 99 L 359.5 98 Z " /><path fill="rgb(122,72,40)" stroke="rgb(122,72,40)" stroke-width="1" opacity="0.807843137254902" d="M 152.5 99 L 157 104.5 L 154 102.5 L 152.5 99 Z " /><path fill="rgb(122,72,40)" stroke="rgb(122,72,40)" stroke-width="1" opacity="0.807843137254902" d="M 363.5 99 L 366 99.5 L 363.5 100 L 363.5 99 Z " /><path fill="rgb(122,72,40)" stroke="rgb(122,72,40)" stroke-width="1" opacity="0.807843137254902" d="M 368.5 100 L 371 100.5 L 368.5 101 L 368.5 100 Z " /><path fill="rgb(122,72,40)" stroke="rgb(122,72,40)" stroke-width="1" opacity="0.807843137254902" d="M 373.5 101 L 376 101.5 L 373.5 102 L 373.5 101 Z " /><path fill="rgb(122,72,40)" stroke="rgb(122,72,40)" stroke-width="1" opacity="0.807843137254902" d="M 378.5 102 L 382 102.5 L 378.5 103 L 378.5 102 Z " /><path fill="rgb(122,72,40)" stroke="rgb(122,72,40)" stroke-width="1" opacity="0.807843137254902" d="M 387.5 103 L 392 103.5 L 387.5 104 L 387.5 103 Z " /><path fill="rgb(122,72,40)" stroke="rgb(122,72,40)" stroke-width="1" opacity="0.807843137254902" d="M 396.5 103 L 399 103.5 L 396.5 104 L 396.5 103 Z " /><path fill="rgb(122,72,40)" stroke="rgb(122,72,40)" stroke-width="1" opacity="0.807843137254902" d="M 158.5 107 L 161.5 111 L 158.5 107 Z " /><path fill="rgb(122,72,40)" stroke="rgb(122,72,40)" stroke-width="1" opacity="0.807843137254902" d="M 163.5 113 L 171.5 122 L 163.5 113 Z " /><path fill="rgb(122,72,40)" stroke="rgb(122,72,40)" stroke-width="1" opacity="0.807843137254902" d="M 365.5 116 L 370.5 122 L 365.5 116 Z " /><path fill="rgb(122,72,40)" stroke="rgb(122,72,40)" stroke-width="1" opacity="0.807843137254902" d="M 174.5 123 L 178.5 128 L 174.5 123 Z " /><path fill="rgb(122,72,40)" stroke="rgb(122,72,40)" stroke-width="1" opacity="0.807843137254902" d="M 287 124 L 295 127.5 L 293.5 128 L 288.5 125 L 287 125.5 L 287 124 Z " /><path fill="rgb(122,72,40)" stroke="rgb(122,72,40)" stroke-width="1" opacity="0.807843137254902" d="M 372.5 124 L 374.5 127 L 372.5 124 Z " /><path fill="rgb(122,72,40)" stroke="rgb(122,72,40)" stroke-width="1" opacity="0.807843137254902" d="M 84.5 128 L 85.5 130 L 84.5 128 Z " /><path fill="rgb(122,72,40)" stroke="rgb(122,72,40)" stroke-width="1" opacity="0.807843137254902" d="M 180.5 128 L 182.5 131 L 180.5 128 Z " /><path fill="rgb(122,72,40)" stroke="rgb(122,72,40)" stroke-width="1" opacity="0.807843137254902" d="M 375.5 128 L 380 133.5 L 377 131.5 L 375.5 128 Z " /><path fill="rgb(122,72,40)" stroke="rgb(122,72,40)" stroke-width="1" opacity="0.807843137254902" d="M 185.5 132 L 186.5 134 L 185.5 132 Z " /><path fill="rgb(122,72,40)" stroke="rgb(122,72,40)" stroke-width="1" opacity="0.807843137254902" d="M 188.5 134 L 189.5 136 L 188.5 134 Z " /><path fill="rgb(122,72,40)" stroke="rgb(122,72,40)" stroke-width="1" opacity="0.807843137254902" d="M 309.5 134 L 313 135.5 L 311.5 136 L 309.5 134 Z " /><path fill="rgb(122,72,40)" stroke="rgb(122,72,40)" stroke-width="1" opacity="0.807843137254902" d="M 191.5 136 L 192.5 138 L 191.5 136 Z " /><path fill="rgb(122,72,40)" stroke="rgb(122,72,40)" stroke-width="1" opacity="0.807843137254902" d="M 291.5 137 L 292 139.5 L 291 139.5 L 291.5 137 Z " /><path fill="rgb(122,72,40)" stroke="rgb(122,72,40)" stroke-width="1" opacity="0.807843137254902" d="M 194.5 138 L 195.5 140 L 194.5 138 Z " /><path fill="rgb(122,72,40)" stroke="rgb(122,72,40)" stroke-width="1" opacity="0.807843137254902" d="M 321.5 139 L 325 140.5 L 323.5 141 L 321.5 139 Z " /><path fill="rgb(122,72,40)" stroke="rgb(122,72,40)" stroke-width="1" opacity="0.807843137254902" d="M 197.5 140 L 198.5 142 L 197.5 140 Z " /><path fill="rgb(122,72,40)" stroke="rgb(122,72,40)" stroke-width="1" opacity="0.807843137254902" d="M 292.5 141 L 293 143.5 L 292 143.5 L 292.5 141 Z " /><path fill="rgb(122,72,40)" stroke="rgb(122,72,40)" stroke-width="1" opacity="0.807843137254902" d="M 202.5 143 L 203.5 145 L 202.5 143 Z " /><path fill="rgb(122,72,40)" stroke="rgb(122,72,40)" stroke-width="1" opacity="0.807843137254902" d="M 384.5 144 L 385 148.5 L 384 148.5 L 384.5 144 Z " /><path fill="rgb(122,72,40)" stroke="rgb(122,72,40)" stroke-width="1" opacity="0.807843137254902" d="M 293.5 146 L 294 148.5 L 293 148.5 L 293.5 146 Z " /><path fill="rgb(122,72,40)" stroke="rgb(122,72,40)" stroke-width="1" opacity="0.807843137254902" d="M 211.5 148 L 220 152.5 L 218.5 153 L 212.5 150 L 211.5 148 Z " /><path fill="rgb(122,72,40)" stroke="rgb(122,72,40)" stroke-width="1" opacity="0.807843137254902" d="M 352.5 150 L 355 150.5 L 352.5 151 L 352.5 150 Z " /><path fill="rgb(122,72,40)" stroke="rgb(122,72,40)" stroke-width="1" opacity="0.807843137254902" d="M 383.5 150 L 381.5 153 L 380 152.5 L 383.5 150 Z " /><path fill="rgb(122,72,40)" stroke="rgb(122,72,40)" stroke-width="1" opacity="0.807843137254902" d="M 294.5 151 L 295 156.5 L 294 156.5 L 294.5 151 Z " /><path fill="rgb(122,72,40)" stroke="rgb(122,72,40)" stroke-width="1" opacity="0.807843137254902" d="M 356.5 151 L 359 151.5 L 356.5 152 L 356.5 151 Z " /><path fill="rgb(122,72,40)" stroke="rgb(122,72,40)" stroke-width="1" opacity="0.807843137254902" d="M 360.5 152 L 363 152.5 L 360.5 153 L 360.5 152 Z " /><path fill="rgb(122,72,40)" stroke="rgb(122,72,40)" stroke-width="1" opacity="0.807843137254902" d="M 365.5 153 L 371 153.5 L 365.5 154 L 365.5 153 Z " /><path fill="rgb(122,72,40)" stroke="rgb(122,72,40)" stroke-width="1" opacity="0.807843137254902" d="M 375.5 153 L 379 153.5 L 375.5 154 L 375.5 153 Z " /><path fill="rgb(122,72,40)" stroke="rgb(122,72,40)" stroke-width="1" opacity="0.807843137254902" d="M 227.5 156 L 231 157.5 L 229.5 158 L 227.5 156 Z " /><path fill="rgb(122,72,40)" stroke="rgb(122,72,40)" stroke-width="1" opacity="0.807843137254902" d="M 294.5 162 L 295 165.5 L 294 165.5 L 294.5 162 Z " /><path fill="rgb(122,72,40)" stroke="rgb(122,72,40)" stroke-width="1" opacity="0.807843137254902" d="M 257.5 167 L 260 167.5 L 257.5 168 L 257.5 167 Z " /><path fill="rgb(122,72,40)" stroke="rgb(122,72,40)" stroke-width="1" opacity="0.807843137254902" d="M 293.5 167 L 294 168.5 Q 293.5 172.5 288.5 172 L 288.5 171 Q 292.5 171.5 293 168.5 L 293.5 167 Z " /><path fill="rgb(122,72,40)" stroke="rgb(122,72,40)" stroke-width="1" opacity="0.807843137254902" d="M 261.5 168 L 264 168.5 L 261.5 169 L 261.5 168 Z " /><path fill="rgb(122,72,40)" stroke="rgb(122,72,40)" stroke-width="1" opacity="0.807843137254902" d="M 265.5 169 L 268 169.5 L 265.5 170 L 265.5 169 Z " /><path fill="rgb(122,72,40)" stroke="rgb(122,72,40)" stroke-width="1" opacity="0.807843137254902" d="M 270.5 170 L 273 170.5 L 270.5 171 L 270.5 170 Z " /><path fill="rgb(122,72,40)" stroke="rgb(122,72,40)" stroke-width="1" opacity="0.807843137254902" d="M 275.5 171 L 280 171.5 L 275.5 172 L 275.5 171 Z " /><path fill="rgb(122,72,40)" stroke="rgb(122,72,40)" stroke-width="1" opacity="0.807843137254902" d="M 159.5 219 L 166 219.5 L 159.5 220 L 159.5 219 Z " /><path fill="rgb(122,72,40)" stroke="rgb(122,72,40)" stroke-width="1" opacity="0.807843137254902" d="M 346.5 219 L 353 219.5 L 346.5 220 L 346.5 219 Z " /><path fill="rgb(122,72,40)" stroke="rgb(122,72,40)" stroke-width="1" opacity="0.807843137254902" d="M 157.5 220 L 153.5 225 L 157.5 220 Z " /><path fill="rgb(122,72,40)" stroke="rgb(122,72,40)" stroke-width="1" opacity="0.807843137254902" d="M 167.5 220 L 168.5 222 L 167.5 220 Z " /><path fill="rgb(122,72,40)" stroke="rgb(122,72,40)" stroke-width="1" opacity="0.807843137254902" d="M 344.5 220 L 343.5 222 L 344.5 220 Z " /><path fill="rgb(122,72,40)" stroke="rgb(122,72,40)" stroke-width="1" opacity="0.807843137254902" d="M 354.5 220 L 359 225.5 L 358 225.5 L 354.5 220 Z " /><path fill="rgb(122,72,40)" stroke="rgb(122,72,40)" stroke-width="1" opacity="0.807843137254902" d="M 172.5 226 L 173 228.5 L 172 228.5 L 172.5 226 Z " /><path fill="rgb(122,72,40)" stroke="rgb(122,72,40)" stroke-width="1" opacity="0.807843137254902" d="M 339.5 226 L 340 228.5 L 339 228.5 L 339.5 226 Z " /><path fill="rgb(122,72,40)" stroke="rgb(122,72,40)" stroke-width="1" opacity="0.807843137254902" d="M 152.5 227 L 153 240.5 L 152 240.5 L 152.5 227 Z " /><path fill="rgb(122,72,40)" stroke="rgb(122,72,40)" stroke-width="1" opacity="0.807843137254902" d="M 359.5 227 L 360 240.5 L 359 240.5 L 359.5 227 Z " /><path fill="rgb(122,72,40)" stroke="rgb(122,72,40)" stroke-width="1" opacity="0.807843137254902" d="M 172.5 239 L 173 241.5 L 172 241.5 L 172.5 239 Z " /><path fill="rgb(122,72,40)" stroke="rgb(122,72,40)" stroke-width="1" opacity="0.807843137254902" d="M 339.5 239 L 340 241.5 L 339 241.5 L 339.5 239 Z " /><path fill="rgb(122,72,40)" stroke="rgb(122,72,40)" stroke-width="1" opacity="0.807843137254902" d="M 358.5 242 L 359 243.5 L 354 247.5 L 358.5 242 Z " /><path fill="rgb(122,72,40)" stroke="rgb(122,72,40)" stroke-width="1" opacity="0.807843137254902" d="M 153.5 243 L 157.5 248 L 153.5 243 Z " /><path fill="rgb(122,72,40)" stroke="rgb(122,72,40)" stroke-width="1" opacity="0.807843137254902" d="M 171.5 243 L 170.5 245 L 171.5 243 Z " /><path fill="rgb(122,72,40)" stroke="rgb(122,72,40)" stroke-width="1" opacity="0.807843137254902" d="M 168.5 246 L 167.5 248 L 168.5 246 Z " /><path fill="rgb(122,72,40)" stroke="rgb(122,72,40)" stroke-width="1" opacity="0.807843137254902" d="M 343.5 246 L 344.5 248 L 343.5 246 Z " /><path fill="rgb(122,72,40)" stroke="rgb(122,72,40)" stroke-width="1" opacity="0.807843137254902" d="M 159.5 248 L 166 248.5 L 159.5 249 L 159.5 248 Z " /><path fill="rgb(122,72,40)" stroke="rgb(122,72,40)" stroke-width="1" opacity="0.807843137254902" d="M 346.5 248 L 353 248.5 L 346.5 249 L 346.5 248 Z " /><path fill="rgb(122,72,40)" stroke="rgb(122,72,40)" stroke-width="1" opacity="0.807843137254902" d="M 149.5 351 Q 157.5 350 161.5 353 L 175 364.5 Q 175.8 369.3 172.5 370 L 163.5 374 L 154.5 374 Q 147.6 372.4 144 367.5 L 143 358.5 L 147.5 352 L 149.5 351 Z " /><path fill="rgb(122,72,40)" stroke="rgb(122,72,40)" stroke-width="1" opacity="0.807843137254902" d="M 355.5 352 Q 364.5 350.5 367 355.5 L 370 364.5 Q 368.6 370.6 363.5 373 L 353.5 376 L 342.5 376 L 339 373.5 Q 340.9 359.9 350.5 354 L 355.5 352 Z " /><path fill="rgb(122,72,40)" stroke="rgb(122,72,40)" stroke-width="1" opacity="0.807843137254902" d="M 330.5 416 L 328.5 419 L 330.5 416 Z " /><path fill="rgb(122,72,40)" stroke="rgb(122,72,40)" stroke-width="1" opacity="0.807843137254902" d="M 183.5 418 L 184.5 420 L 183.5 418 Z " /><path fill="rgb(122,72,40)" stroke="rgb(122,72,40)" stroke-width="1" opacity="0.807843137254902" d="M 332.5 421 L 331.5 423 L 332.5 421 Z " /><path fill="rgb(122,72,40)" stroke="rgb(122,72,40)" stroke-width="1" opacity="0.807843137254902" d="M 180.5 422 L 182.5 425 L 180.5 422 Z " /><path fill="rgb(122,72,40)" stroke="rgb(122,72,40)" stroke-width="1" opacity="0.807843137254902" d="M 325.5 422 L 320.5 428 L 325.5 422 Z " /><path fill="rgb(122,72,40)" stroke="rgb(122,72,40)" stroke-width="1" opacity="0.807843137254902" d="M 194.5 429 L 196.5 432 L 194.5 429 Z " /><path fill="rgb(122,72,40)" stroke="rgb(122,72,40)" stroke-width="1" opacity="0.807843137254902" d="M 188.5 430 L 191.5 434 L 188.5 430 Z " /><path fill="rgb(122,72,40)" stroke="rgb(122,72,40)" stroke-width="1" opacity="0.807843137254902" d="M 321.5 432 L 319.5 435 L 321.5 432 Z " /><path fill="rgb(122,72,40)" stroke="rgb(122,72,40)" stroke-width="1" opacity="0.807843137254902" d="M 194.5 435 L 195.5 437 L 194.5 435 Z " /><path fill="rgb(122,72,40)" stroke="rgb(122,72,40)" stroke-width="1" opacity="0.807843137254902" d="M 309.5 435 L 308.5 437 L 309.5 435 Z " /><path fill="rgb(122,72,40)" stroke="rgb(122,72,40)" stroke-width="1" opacity="0.807843137254902" d="M 316.5 436 L 315.5 438 L 316.5 436 Z " /><path fill="rgb(122,72,40)" stroke="rgb(122,72,40)" stroke-width="1" opacity="0.807843137254902" d="M 313.5 438 L 312.5 440 L 313.5 438 Z " /><path fill="rgb(122,72,40)" stroke="rgb(122,72,40)" stroke-width="1" opacity="0.807843137254902" d="M 242.5 449 L 245 449.5 L 242.5 450 L 242.5 449 Z " /><path fill="rgb(122,72,40)" stroke="rgb(122,72,40)" stroke-width="1" opacity="0.807843137254902" d="M 268.5 449 L 271 449.5 L 268.5 450 L 268.5 449 Z " /><path fill="rgb(122,72,40)" stroke="rgb(122,72,40)" stroke-width="1" opacity="0.807843137254902" d="M 273.5 453 L 276 453.5 L 273.5 454 L 273.5 453 Z " /><path fill="rgb(122,72,40)" stroke="rgb(122,72,40)" stroke-width="1" opacity="0.807843137254902" d="M 244.5 454 L 248 454.5 L 244.5 455 L 244.5 454 Z " /><path fill="rgb(122,72,40)" stroke="rgb(122,72,40)" stroke-width="1" opacity="0.807843137254902" d="M 264.5 454 L 268 454.5 L 264.5 455 L 264.5 454 Z " /><path fill="rgb(0,0,0)" stroke="rgb(0,0,0)" stroke-width="1" opacity="0.25098039215686274" d="M 0 0 L 45.5 0 L 46 3.5 L 44 9.5 L 44 39.5 L 48 61.5 L 57 87.5 Q 69.8 116.2 91.5 136 L 97 140.5 Q 77.5 173 68 215.5 L 63 242.5 L 61 269.5 L 60 270.5 L 59 322.5 L 60 323.5 L 60 339.5 L 61 340.5 L 63 364.5 L 70 395.5 L 77 415.5 Q 91.4 450.1 117.5 473 Q 155.9 507.1 224 511.5 L 0 512 L 0 0 Z " /><path fill="rgb(0,0,0)" stroke="rgb(0,0,0)" stroke-width="1" opacity="0.25098039215686274" d="M 54.5 0 L 458 0.5 Q 436.7 4.2 421.5 14 Q 405 24 393 38.5 Q 383.6 48.1 378 61.5 L 395 80.5 L 402 93.5 L 403 101.5 L 401.5 103 L 392.5 104 L 391.5 103 L 382.5 103 L 366.5 100 L 344.5 94 L 365 115.5 L 380 134.5 L 384 143.5 L 384 149.5 L 379.5 153 L 371.5 154 L 341.5 147 Q 312.5 136.7 287 124 L 293 144.5 L 295 161.5 L 294 166.5 L 290.5 171 L 280.5 172 Q 205.3 157.7 162 111.5 L 146 88.5 Q 139.7 67.8 129 51.5 Q 118.4 36.1 104.5 24 L 81.5 9 L 62.5 2 L 54.5 1 L 54.5 0 Z " /><path fill="rgb(0,0,0)" stroke="rgb(0,0,0)" stroke-width="1" opacity="0.25098039215686274" d="M 466 0 L 511.5 0 L 512 0.5 L 512 512 L 288 511.5 Q 368.6 506.1 408 459.5 Q 432.2 432.2 443 391.5 L 448 369.5 L 450 350.5 L 451 349.5 L 451 340.5 L 452 339.5 L 453 290.5 L 452 289.5 L 452 271.5 L 451 270.5 L 450 250.5 L 449 249.5 L 447 230.5 L 440 199.5 L 430 170.5 L 415 140.5 L 429 127.5 Q 448.2 106.7 459 77.5 L 464 61.5 L 468 39.5 L 468 10.5 L 466 0 Z " /><path fill="rgb(0,0,0)" stroke="rgb(0,0,0)" stroke-width="1" opacity="0.25098039215686274" d="M 158.5 220 Q 168.3 218.3 171 223.5 Q 174.1 228.9 173 238.5 L 170 246 L 166.5 248 L 158.5 248 L 153 242.5 L 153 225.5 L 158.5 220 Z " /><path fill="rgb(0,0,0)" stroke="rgb(0,0,0)" stroke-width="1" opacity="0.25098039215686274" d="M 345.5 220 Q 356 218 358 224.5 L 359 226.5 L 359 241.5 L 353.5 248 Q 343.8 249.8 341 244.5 Q 337.9 239.1 339 229.5 L 342.5 222 L 345.5 220 Z " /><path fill="rgb(0,0,0)" stroke="rgb(0,0,0)" stroke-width="1" opacity="0.25098039215686274" d="M 179.5 416 L 183 417.5 L 196.5 432 Q 210.7 443.3 231.5 448 L 242.5 450 L 270.5 450 L 281.5 448 L 296.5 443 Q 314.1 435.6 326 422.5 L 331.5 416 Q 335.7 414.7 334 419.5 L 322.5 432 Q 309.2 443.7 290.5 450 L 272.5 454 L 248.5 455 L 247.5 454 L 233.5 453 L 211.5 446 Q 194.8 438.2 183 425.5 L 178 417.5 L 179.5 416 Z " /><path fill="rgb(162,99,69)" stroke="rgb(162,99,69)" stroke-width="1" opacity="0.996078431372549" d="M 46 0 L 62.5 2 L 83.5 10 Q 103.9 20.6 118 37.5 L 134 59.5 L 137 66.5 L 135 65.5 Q 122.9 40.6 102.5 24 Q 81.5 5.2 47 1 L 45 10.5 L 45 39.5 L 50 64.5 Q 55.6 84.4 65 100.5 Q 76.9 121.6 94.5 137 L 99 140.5 Q 83.2 165.2 74 196.5 L 66 230.5 L 62.5 259 L 62 250.5 L 63 249.5 L 64 236.5 L 68 215.5 L 77 183.5 L 85 163.5 L 97 140.5 L 86 130.5 L 84.5 128 Q 82.3 128.8 83 126.5 L 69 109.5 L 53 77.5 L 48 61.5 L 44 39.5 L 44 9.5 L 46 0 Z " /><path fill="rgb(162,99,69)" stroke="rgb(162,99,69)" stroke-width="1" opacity="0.996078431372549" d="M 459.5 0 L 466 0 L 466 3.5 L 468 10.5 L 468 39.5 L 464 61.5 L 453 91.5 Q 440.5 117.5 420.5 136 L 415 140.5 L 432 175.5 L 444 215.5 L 448 236.5 L 448 242.5 L 450 250.5 L 450 259.5 L 451 260.5 L 451 270.5 L 452 271.5 L 453 321.5 L 452 322.5 L 451 349.5 L 450 350.5 L 448 369.5 L 441 398.5 L 434.5 415 L 434 412.5 L 441 394.5 L 448 363.5 L 450 339.5 L 451 338.5 L 451 322.5 L 452 321.5 L 452 290.5 L 451 289.5 L 451 271.5 L 450 270.5 L 448 243.5 L 441 207.5 L 427 166.5 L 413 140.5 L 430 124.5 Q 451.5 100 462 64.5 L 467 38.5 L 467 10.5 L 465 1 L 459.5 1 L 443.5 5 L 425.5 13 Q 406.5 24 393 40.5 L 378.5 61 L 378 59.5 Q 390 39 407.5 24 Q 427.5 6 459.5 0 Z " /><path fill="rgb(162,99,69)" stroke="rgb(162,99,69)" stroke-width="1" opacity="0.996078431372549" d="M 61.5 260 L 62 270.5 L 61 271.5 L 60.5 289 L 60 271.5 L 61 270.5 L 61.5 260 Z " /><path fill="rgb(162,99,69)" stroke="rgb(162,99,69)" stroke-width="1" opacity="0.996078431372549" d="M 59.5 290 L 60 321.5 L 59 321.5 L 59.5 290 Z " /><path fill="rgb(162,99,69)" stroke="rgb(162,99,69)" stroke-width="1" opacity="0.996078431372549" d="M 60.5 323 L 62 349.5 L 63 350.5 L 65 369.5 L 71 394.5 L 78 412.5 L 76 413 Q 68.4 393.3 64 369.5 L 62 350.5 L 61 349.5 L 61 340.5 L 60 339.5 L 60.5 323 Z " /><path fill="rgb(162,99,69)" stroke="rgb(162,99,69)" stroke-width="1" opacity="1" d="M 47 1 L 52.5 1 L 68.5 5 L 86.5 13 Q 105.5 24 119 40.5 L 137 67.5 L 145 87.5 L 152 99.5 L 171.5 122 Q 196.5 144 229.5 158 L 265.5 170 L 275.5 172 L 290.5 172 L 295 165.5 L 295 151.5 L 288 125.5 L 289.5 126 L 323.5 141 L 352.5 151 L 365.5 154 L 378.5 154 L 384 150.5 L 385 144.5 Q 381.5 134 375 126.5 L 346 95.5 L 347.5 96 L 384.5 104 L 386.5 103 L 386 104.5 L 391 109.5 L 401.5 122 Q 417.1 106.1 427 84.5 Q 433.9 70.1 435 51 Q 414.2 57 403 73.5 L 396.5 83 L 392 75.5 L 379 60.5 Q 391.3 39.3 409.5 24 Q 430.5 5.2 465 1 L 467 10.5 L 467 38.5 L 462 64.5 Q 456.4 84.4 447 100.5 Q 435.1 121.6 417.5 137 L 413 140.5 Q 425 159 433 181.5 L 444 220.5 L 448 243.5 L 448 250.5 L 449 251.5 L 450 270.5 L 451 271.5 L 452 321.5 L 451 322.5 L 451 338.5 L 450 339.5 L 450 348.5 L 449 349.5 L 447 369.5 L 441 394.5 L 434.5 412 L 433 406.5 L 424 390.5 L 399.5 364 Q 372 339.5 334.5 325 L 312.5 318 L 287.5 313 L 268.5 312 L 267.5 311 L 244.5 311 L 243.5 312 L 232.5 312 L 231.5 313 L 223.5 313 L 207.5 316 L 185.5 322 L 160.5 332 Q 123.4 349.9 97 378.5 L 81 400.5 L 77.5 412 L 69 387.5 L 64 363.5 L 64 357.5 L 62 349.5 L 62 339.5 L 61 338.5 L 61 323.5 L 60 322.5 L 60 289.5 L 61 288.5 L 61 271.5 L 62 270.5 L 62 259.5 L 63 258.5 L 64 243.5 L 71 207.5 L 85 166.5 L 99 140.5 L 82 124.5 Q 60.5 100 50 64.5 L 45 39.5 L 45 10.5 L 47 1 Z M 77 51 Q 78 70 85 85 Q 95 106 111 122 L 127 104 Q 120 87 109 74 Q 98 57 77 51 Z M 160 219 L 158 220 L 152 228 Q 150 238 153 244 L 160 249 L 168 248 L 173 242 L 173 227 L 172 225 Q 170 218 160 219 Z M 347 219 L 345 220 L 339 227 L 339 242 L 340 244 L 347 249 L 355 248 L 360 241 Q 362 230 359 225 Q 357 218 347 219 Z " /><path fill="rgb(162,99,69)" stroke="rgb(162,99,69)" stroke-width="1" opacity="1" d="M 403.5 97 L 404 100.5 L 403 100.5 L 403.5 97 Z " /><path fill="rgb(162,99,69)" stroke="rgb(162,99,69)" stroke-width="1" opacity="1" d="M 151.5 350 L 155 350.5 L 151.5 351 L 151.5 350 Z " /><path fill="rgb(162,99,69)" stroke="rgb(162,99,69)" stroke-width="1" opacity="1" d="M 357.5 351 L 361 351.5 L 357.5 352 L 357.5 351 Z " /><path fill="rgb(162,99,69)" stroke="rgb(162,99,69)" stroke-width="1" opacity="1" d="M 162.5 353 L 163.5 355 L 162.5 353 Z " /><path fill="rgb(162,99,69)" stroke="rgb(162,99,69)" stroke-width="1" opacity="1" d="M 365.5 353 L 366.5 355 L 365.5 353 Z " /><path fill="rgb(162,99,69)" stroke="rgb(162,99,69)" stroke-width="1" opacity="1" d="M 165.5 355 L 166.5 357 L 165.5 355 Z " /><path fill="rgb(162,99,69)" stroke="rgb(162,99,69)" stroke-width="1" opacity="1" d="M 348.5 355 L 343.5 361 L 348.5 355 Z " /><path fill="rgb(162,99,69)" stroke="rgb(162,99,69)" stroke-width="1" opacity="1" d="M 367.5 356 L 369 358.5 L 368 358.5 L 367.5 356 Z " /><path fill="rgb(162,99,69)" stroke="rgb(162,99,69)" stroke-width="1" opacity="1" d="M 169.5 358 L 173.5 363 L 169.5 358 Z " /><path fill="rgb(162,99,69)" stroke="rgb(162,99,69)" stroke-width="1" opacity="1" d="M 142.5 360 L 143 364.5 L 142 364.5 L 142.5 360 Z " /><path fill="rgb(162,99,69)" stroke="rgb(162,99,69)" stroke-width="1" opacity="1" d="M 175.5 366 L 176 367.5 L 173 369.5 L 175.5 366 Z " /><path fill="rgb(162,99,69)" stroke="rgb(162,99,69)" stroke-width="1" opacity="1" d="M 144.5 368 L 146.5 371 L 144.5 368 Z " /><path fill="rgb(162,99,69)" stroke="rgb(162,99,69)" stroke-width="1" opacity="1" d="M 368.5 368 L 365.5 372 L 368.5 368 Z " /><path fill="rgb(162,99,69)" stroke="rgb(162,99,69)" stroke-width="1" opacity="1" d="M 339.5 369 L 340 371.5 L 339 371.5 L 339.5 369 Z " /><path fill="rgb(162,99,69)" stroke="rgb(162,99,69)" stroke-width="1" opacity="1" d="M 171.5 370 L 170.5 372 L 171.5 370 Z " /><path fill="rgb(162,99,69)" stroke="rgb(162,99,69)" stroke-width="1" opacity="1" d="M 148.5 371 L 151 372.5 L 149.5 373 L 148.5 371 Z " /><path fill="rgb(162,99,69)" stroke="rgb(162,99,69)" stroke-width="1" opacity="1" d="M 156.5 374 L 161 374.5 L 156.5 375 L 156.5 374 Z " /><path fill="rgb(162,99,69)" stroke="rgb(162,99,69)" stroke-width="1" opacity="1" d="M 344.5 376 L 350 376.5 L 344.5 377 L 344.5 376 Z " /><path fill="rgb(162,99,69)" stroke="rgb(162,99,69)" stroke-width="1" opacity="1" d="M 181.5 415 L 182.5 417 L 181.5 415 Z " /><path fill="rgb(162,99,69)" stroke="rgb(162,99,69)" stroke-width="1" opacity="1" d="M 327.5 419 L 326.5 421 L 327.5 419 Z " /><path fill="rgb(162,99,69)" stroke="rgb(162,99,69)" stroke-width="1" opacity="1" d="M 185.5 420 L 188.5 424 L 185.5 420 Z " /><path fill="rgb(162,99,69)" stroke="rgb(162,99,69)" stroke-width="1" opacity="1" d="M 330.5 424 L 322.5 433 L 330.5 424 Z " /><path fill="rgb(162,99,69)" stroke="rgb(162,99,69)" stroke-width="1" opacity="1" d="M 190.5 425 L 193.5 429 L 190.5 425 Z " /><path fill="rgb(162,99,69)" stroke="rgb(162,99,69)" stroke-width="1" opacity="1" d="M 183.5 426 L 186.5 430 L 183.5 426 Z " /><path fill="rgb(162,99,69)" stroke="rgb(162,99,69)" stroke-width="1" opacity="1" d="M 318.5 428 L 316.5 431 L 318.5 428 Z " /><path fill="rgb(162,99,69)" stroke="rgb(162,99,69)" stroke-width="1" opacity="1" d="M 197.5 431 L 198.5 433 L 197.5 431 Z " /><path fill="rgb(162,99,69)" stroke="rgb(162,99,69)" stroke-width="1" opacity="1" d="M 313.5 432 L 312.5 434 L 313.5 432 Z " /><path fill="rgb(162,99,69)" stroke="rgb(162,99,69)" stroke-width="1" opacity="1" d="M 192.5 434 L 193.5 436 L 192.5 434 Z " /><path fill="rgb(162,99,69)" stroke="rgb(162,99,69)" stroke-width="1" opacity="1" d="M 245.5 449 L 251 449.5 L 245.5 450 L 245.5 449 Z " /><path fill="rgb(162,99,69)" stroke="rgb(162,99,69)" stroke-width="1" opacity="1" d="M 263.5 449 L 268 449.5 L 263.5 450 L 263.5 449 Z " /><path fill="rgb(162,99,69)" stroke="rgb(162,99,69)" stroke-width="1" opacity="1" d="M 241.5 454 L 244 454.5 L 241.5 455 L 241.5 454 Z " /><path fill="rgb(162,99,69)" stroke="rgb(162,99,69)" stroke-width="1" opacity="1" d="M 268.5 454 L 271 454.5 L 268.5 455 L 268.5 454 Z " /><path fill="rgb(221,170,111)" stroke="rgb(221,170,111)" stroke-width="1" opacity="0.8392156862745098" d="M 78.5 51 L 80 51.5 L 78 52 L 77.5 56 L 77 52.5 L 78.5 51 Z " /><path fill="rgb(221,170,111)" stroke="rgb(221,170,111)" stroke-width="1" opacity="0.8392156862745098" d="M 432.5 51 L 435 52.5 L 434.5 56 L 434 52 L 432.5 51 Z " /><path fill="rgb(221,170,111)" stroke="rgb(221,170,111)" stroke-width="1" opacity="0.8392156862745098" d="M 94.5 59 L 95.5 61 L 94.5 59 Z " /><path fill="rgb(221,170,111)" stroke="rgb(221,170,111)" stroke-width="1" opacity="0.8392156862745098" d="M 417.5 59 L 416.5 61 L 417.5 59 Z " /><path fill="rgb(221,170,111)" stroke="rgb(221,170,111)" stroke-width="1" opacity="0.8392156862745098" d="M 107.5 72 L 108.5 74 L 107.5 72 Z " /><path fill="rgb(221,170,111)" stroke="rgb(221,170,111)" stroke-width="1" opacity="0.8392156862745098" d="M 404.5 72 L 403.5 74 L 404.5 72 Z " /><path fill="rgb(221,170,111)" stroke="rgb(221,170,111)" stroke-width="1" opacity="0.8392156862745098" d="M 111.5 77 L 112.5 79 L 111.5 77 Z " /><path fill="rgb(221,170,111)" stroke="rgb(221,170,111)" stroke-width="1" opacity="0.8392156862745098" d="M 400.5 77 L 399.5 79 L 400.5 77 Z " /><path fill="rgb(221,170,111)" stroke="rgb(221,170,111)" stroke-width="1" opacity="0.8392156862745098" d="M 126.5 103 L 125.5 105 L 126.5 103 Z " /><path fill="rgb(221,170,111)" stroke="rgb(221,170,111)" stroke-width="1" opacity="0.8392156862745098" d="M 99.5 108 L 100.5 110 L 99.5 108 Z " /><path fill="rgb(221,170,111)" stroke="rgb(221,170,111)" stroke-width="1" opacity="0.8392156862745098" d="M 412.5 108 L 411.5 110 L 412.5 108 Z " /><path fill="rgb(221,170,111)" stroke="rgb(221,170,111)" stroke-width="1" opacity="0.8392156862745098" d="M 120.5 110 L 119.5 112 L 120.5 110 Z " /><path fill="rgb(221,170,111)" stroke="rgb(221,170,111)" stroke-width="1" opacity="0.8392156862745098" d="M 391.5 110 L 392.5 112 L 391.5 110 Z " /><path fill="rgb(221,170,111)" stroke="rgb(221,170,111)" stroke-width="1" opacity="0.8392156862745098" d="M 114.5 117 L 112.5 120 L 114.5 117 Z " /><path fill="rgb(221,170,111)" stroke="rgb(221,170,111)" stroke-width="1" opacity="0.8392156862745098" d="M 397.5 117 L 399.5 120 L 397.5 117 Z " /><path fill="rgb(221,170,111)" stroke="rgb(221,170,111)" stroke-width="1" opacity="0.8392156862745098" d="M 108.5 119 L 110.5 122 L 108.5 119 Z " /><path fill="rgb(221,170,111)" stroke="rgb(221,170,111)" stroke-width="1" opacity="0.8392156862745098" d="M 403.5 119 L 401.5 122 L 403.5 119 Z " /><path fill="rgb(221,170,111)" stroke="rgb(221,170,111)" stroke-width="1" opacity="0.8392156862745098" d="M 244.5 311 L 255 311.5 L 244.5 312 L 244.5 311 Z " /><path fill="rgb(221,170,111)" stroke="rgb(221,170,111)" stroke-width="1" opacity="0.8392156862745098" d="M 257.5 311 L 268 311.5 L 257.5 312 L 257.5 311 Z " /><path fill="rgb(221,170,111)" stroke="rgb(221,170,111)" stroke-width="1" opacity="0.8392156862745098" d="M 277.5 312 L 280 312.5 L 277.5 313 L 277.5 312 Z " /><path fill="rgb(221,170,111)" stroke="rgb(221,170,111)" stroke-width="1" opacity="0.8392156862745098" d="M 223.5 313 L 226 313.5 L 223.5 314 L 223.5 313 Z " /><path fill="rgb(221,170,111)" stroke="rgb(221,170,111)" stroke-width="1" opacity="0.8392156862745098" d="M 146.5 352 L 145.5 354 L 146.5 352 Z " /><path fill="rgb(221,170,111)" stroke="rgb(221,170,111)" stroke-width="1" opacity="0.8392156862745098" d="M 125.5 353 L 124.5 355 L 125.5 353 Z " /><path fill="rgb(221,170,111)" stroke="rgb(221,170,111)" stroke-width="1" opacity="0.8392156862745098" d="M 388.5 355 L 389.5 357 L 388.5 355 Z " /><path fill="rgb(221,170,111)" stroke="rgb(221,170,111)" stroke-width="1" opacity="0.8392156862745098" d="M 121.5 356 L 120.5 358 L 121.5 356 Z " /><path fill="rgb(221,170,111)" stroke="rgb(221,170,111)" stroke-width="1" opacity="0.8392156862745098" d="M 167.5 356 L 168.5 358 L 167.5 356 Z " /><path fill="rgb(221,170,111)" stroke="rgb(221,170,111)" stroke-width="1" opacity="0.8392156862745098" d="M 393.5 359 L 394.5 361 L 393.5 359 Z " /><path fill="rgb(221,170,111)" stroke="rgb(221,170,111)" stroke-width="1" opacity="0.8392156862745098" d="M 116.5 360 L 115.5 362 L 116.5 360 Z " /><path fill="rgb(221,170,111)" stroke="rgb(221,170,111)" stroke-width="1" opacity="0.8392156862745098" d="M 399.5 364 L 401.5 367 L 399.5 364 Z " /><path fill="rgb(221,170,111)" stroke="rgb(221,170,111)" stroke-width="1" opacity="0.8392156862745098" d="M 109.5 366 L 97.5 379 L 109.5 366 Z " /><path fill="rgb(221,170,111)" stroke="rgb(221,170,111)" stroke-width="1" opacity="0.8392156862745098" d="M 413.5 378 L 415.5 381 L 413.5 378 Z " /><path fill="rgb(221,170,111)" stroke="rgb(221,170,111)" stroke-width="1" opacity="0.8392156862745098" d="M 92.5 384 L 91.5 386 L 92.5 384 Z " /><path fill="rgb(221,170,111)" stroke="rgb(221,170,111)" stroke-width="1" opacity="0.8392156862745098" d="M 419.5 385 L 420.5 387 L 419.5 385 Z " /><path fill="rgb(221,170,111)" stroke="rgb(221,170,111)" stroke-width="1" opacity="0.8392156862745098" d="M 89.5 388 L 88.5 390 L 89.5 388 Z " /><path fill="rgb(221,170,111)" stroke="rgb(221,170,111)" stroke-width="1" opacity="0.8392156862745098" d="M 77.5 413 Q 90.6 447.4 115.5 470 Q 140.7 493.3 179 503.5 L 176.5 504 Q 131.1 490.9 104 459.5 L 88 437.5 L 77 415.5 L 77.5 413 Z " /><path fill="rgb(221,170,111)" stroke="rgb(221,170,111)" stroke-width="1" opacity="0.8392156862745098" d="M 333.5 415 L 334.5 417 L 333.5 415 Z " /><path fill="rgb(221,170,111)" stroke="rgb(221,170,111)" stroke-width="1" opacity="0.8392156862745098" d="M 433.5 415 L 434 417.5 Q 419.8 450.8 394.5 473 Q 374.6 490.6 346.5 500 L 346.5 499 Q 382.5 487 405 461.5 Q 423.1 442.1 433.5 415 Z " /><path fill="rgb(221,170,111)" stroke="rgb(221,170,111)" stroke-width="1" opacity="0.8392156862745098" d="M 325.5 421 L 324.5 423 L 325.5 421 Z " /><path fill="rgb(221,170,111)" stroke="rgb(221,170,111)" stroke-width="1" opacity="0.8392156862745098" d="M 181.5 424 L 182.5 426 L 181.5 424 Z " /><path fill="rgb(221,170,111)" stroke="rgb(221,170,111)" stroke-width="1" opacity="0.8392156862745098" d="M 320.5 426 L 319.5 428 L 320.5 426 Z " /><path fill="rgb(221,170,111)" stroke="rgb(221,170,111)" stroke-width="1" opacity="0.8392156862745098" d="M 187.5 430 L 189.5 433 L 187.5 430 Z " /><path fill="rgb(221,170,111)" stroke="rgb(221,170,111)" stroke-width="1" opacity="0.8392156862745098" d="M 251.5 449 L 254 449.5 L 251.5 450 L 251.5 449 Z " /><path fill="rgb(221,170,111)" stroke="rgb(221,170,111)" stroke-width="1" opacity="0.8392156862745098" d="M 252.5 455 L 260 455.5 L 252.5 456 L 252.5 455 Z " /><path fill="rgb(221,170,111)" stroke="rgb(221,170,111)" stroke-width="1" opacity="0.8392156862745098" d="M 339.5 501 L 342 501.5 L 333.5 504 L 333.5 503 L 339.5 501 Z " /><path fill="rgb(221,170,111)" stroke="rgb(221,170,111)" stroke-width="1" opacity="0.8392156862745098" d="M 180.5 504 L 183 504.5 L 180.5 505 L 180.5 504 Z " /><path fill="rgb(221,170,111)" stroke="rgb(221,170,111)" stroke-width="1" opacity="0.8392156862745098" d="M 329.5 504 L 332 504.5 L 325.5 506 L 325.5 505 L 329.5 504 Z " /><path fill="rgb(221,170,111)" stroke="rgb(221,170,111)" stroke-width="1" opacity="0.8392156862745098" d="M 184.5 505 L 188 505.5 L 184.5 506 L 184.5 505 Z " /><path fill="rgb(221,170,111)" stroke="rgb(221,170,111)" stroke-width="1" opacity="0.8392156862745098" d="M 189.5 506 L 192 506.5 L 189.5 507 L 189.5 506 Z " /><path fill="rgb(221,170,111)" stroke="rgb(221,170,111)" stroke-width="1" opacity="0.8392156862745098" d="M 320.5 506 L 324 506.5 L 320.5 507 L 320.5 506 Z " /><path fill="rgb(221,170,111)" stroke="rgb(221,170,111)" stroke-width="1" opacity="0.8392156862745098" d="M 193.5 507 L 198 507.5 L 193.5 508 L 193.5 507 Z " /><path fill="rgb(221,170,111)" stroke="rgb(221,170,111)" stroke-width="1" opacity="0.8392156862745098" d="M 315.5 507 L 319 507.5 L 315.5 508 L 315.5 507 Z " /><path fill="rgb(221,170,111)" stroke="rgb(221,170,111)" stroke-width="1" opacity="0.8392156862745098" d="M 199.5 508 L 204 508.5 L 199.5 509 L 199.5 508 Z " /><path fill="rgb(221,170,111)" stroke="rgb(221,170,111)" stroke-width="1" opacity="0.8392156862745098" d="M 308.5 508 L 314 508.5 L 308.5 509 L 308.5 508 Z " /><path fill="rgb(221,170,111)" stroke="rgb(221,170,111)" stroke-width="1" opacity="0.8392156862745098" d="M 205.5 509 L 211 509.5 L 205.5 510 L 205.5 509 Z " /><path fill="rgb(221,170,111)" stroke="rgb(221,170,111)" stroke-width="1" opacity="0.8392156862745098" d="M 301.5 509 L 307 509.5 L 301.5 510 L 301.5 509 Z " /><path fill="rgb(221,170,111)" stroke="rgb(221,170,111)" stroke-width="1" opacity="0.8392156862745098" d="M 212.5 510 L 222 510.5 L 212.5 511 L 212.5 510 Z " /><path fill="rgb(221,170,111)" stroke="rgb(221,170,111)" stroke-width="1" opacity="0.8392156862745098" d="M 290.5 510 L 299 510.5 L 290.5 511 L 290.5 510 Z " /><path fill="rgb(221,170,111)" stroke="rgb(221,170,111)" stroke-width="1" opacity="0.8392156862745098" d="M 224.5 511 L 241 511.5 L 224.5 512 L 224.5 511 Z " /><path fill="rgb(221,170,111)" stroke="rgb(221,170,111)" stroke-width="1" opacity="0.8392156862745098" d="M 271.5 511 L 287 511.5 L 271.5 512 L 271.5 511 Z " /><path fill="rgb(237,188,125)" stroke="rgb(237,188,125)" stroke-width="1" opacity="0.996078431372549" d="M 77.5 51 Q 96.3 57.2 107 71.5 Q 118.8 85.2 127 102.5 L 112 121 L 104 114.5 Q 92.7 100.8 85 83.5 L 79 65.5 L 78 52.5 L 77.5 51 Z " /><path fill="rgb(237,188,125)" stroke="rgb(237,188,125)" stroke-width="1" opacity="0.996078431372549" d="M 434.5 51 L 434 52.5 L 433 65.5 L 427 83.5 Q 417.5 105.5 401.5 121 Q 399.3 121.8 400 119.5 L 387 104 L 400.5 104 L 404 101.5 L 403 93.5 L 397 82.5 Q 404.7 70.2 415.5 61 Q 423.2 54.2 434.5 51 Z " /><path fill="rgb(237,188,125)" stroke="rgb(237,188,125)" stroke-width="1" opacity="0.996078431372549" d="M 255.5 311 L 257.5 312 L 285.5 313 L 307.5 317 L 343.5 329 Q 384.6 346.9 413 377.5 L 430 400.5 L 433 407.5 L 434 414.5 Q 420.8 447.8 396.5 470 Q 375.4 489.4 345.5 500 L 324.5 506 L 301.5 509 L 300.5 510 L 290.5 510 L 287.5 512 L 286.5 511 L 271.5 511 L 270.5 512 L 241.5 512 L 240.5 511 L 222.5 511 L 221.5 510 L 211.5 510 L 210.5 509 L 199.5 508 L 198 508.5 Q 198.6 505.8 192.5 507 L 189.5 506 L 188 506.5 Q 188.9 503.1 183.5 505 Q 135.6 492.9 107 461.5 Q 93 446 83 426.5 L 78 415.5 L 78 408.5 Q 91.1 380.1 114.5 362 Q 143.6 337.1 183.5 323 L 213.5 315 L 233.5 313 L 234.5 312 L 254.5 312 L 255.5 311 Z M 151 350 L 147 352 L 142 360 L 143 368 Q 147 374 156 375 Q 170 375 176 368 L 175 364 Q 168 352 151 350 Z M 357 351 L 350 354 Q 339 359 339 375 L 344 377 L 352 377 L 361 375 L 370 368 Q 371 359 368 356 L 362 351 L 357 351 Z M 180 415 L 177 418 L 181 425 Q 193 438 210 446 L 230 453 L 241 455 L 252 455 L 253 456 L 272 455 L 287 452 Q 307 446 322 434 L 335 420 Q 336 416 334 415 L 329 416 L 324 424 Q 312 436 295 443 L 278 448 L 262 449 L 261 450 L 242 449 L 224 445 Q 207 440 196 430 L 184 418 Q 184 415 180 415 Z " /></svg>